<svg id="Calque_1" data-name="Calque 1" xmlns="http://www.w3.org/2000/svg" viewBox="0 0 316.73 209.23"><defs><style>.cls-1{fill:#405914;}</style></defs><polygon points="137.09 152.97 133.28 152.97 133.28 195.64 137.09 195.64 137.09 152.97 137.09 152.97"/><polygon points="148.54 152.97 144.72 152.97 144.72 195.64 148.54 195.64 148.54 152.97 148.54 152.97"/><path class="cls-1" d="M68.36,59.21a83,83,0,0,1,9.56,3.52c.85.42,1.41,1.83,1.41,3.37,0,.85.84,6.19,1.12,7.88s-.14,2.67-.56,2.67c-.7,0-.84-.28-1.69-2.25C74,64.27,66.11,58.65,51.2,58.65c-10.69,0-21.09,4.64-27.56,11.53-6.75,7.31-12.1,18.71-12.1,34.18,0,16.59,9.57,29.39,17,35.44a38.27,38.27,0,0,0,22.92,8.29c7.32,0,14.07-3,17.58-6.47,1.83-2.11,1.83-4.36,2.11-7.73a115.37,115.37,0,0,0,.14-15.75c-.42-4.92-2.11-6.47-8.3-7.31-1.4-.15-2.39-.57-2.39-1.13s.57-1,3.38-.84c2.25,0,5.91.42,10.83.42s7-.28,8.15-.28,2.26.28,2.26.84-1.69,1.13-2.68,1.41c-2,.42-2.81,1.4-2.81,8.86,0,5.9.7,16,.7,18s.14,2.81-1,3.37-3.52,1.83-6.61,3.38c-6.33,2.95-13.08,5.48-20.81,5.48-15.33,0-26.73-5.2-35.73-13.22-9.84-8.29-15-19.83-15-33.61C1.28,89,6.9,76.79,20.12,66.67,26.59,61.88,35,56.54,52.75,56.54c6.89,0,12.37,2,15.61,2.67Z"/><path class="cls-1" d="M114.57,69.29c-8.17,9.13-10.94,22.2-10.94,33.15,0,10,4.38,21.5,10.65,29.64,9.92,12.78,21,15.6,29.32,15.6a26.28,26.28,0,0,0,15.76-5.06c8-5.76,17.65-18.83,17.65-37.93A53.12,53.12,0,0,0,163.29,70a33.4,33.4,0,0,0-25.82-11.23c-8.16,0-17.94,5.05-22.9,10.53Zm72.5,33.92c0,22.76-16,38.14-27.28,42.92A48.2,48.2,0,0,1,141,150.34c-26,0-47.56-20.42-47.56-48,0-14,4.82-26.41,18.82-36.66,7.44-5.62,18.82-9,28.15-9,24.65,0,46.68,19.1,46.68,46.56Z"/><path class="cls-1" d="M194.39,58.51c4.22,0,8.44.56,11.81.56,3.66,0,7.88-.56,10.27-.56,1.69,0,2.25.42,2.25.7,0,.56-.56,1-1.69,1.27-6.19,1.26-6.33,2.11-6.89,12.23C210,75.1,210,87.2,210,100c0,13.78.14,28.26.28,30.94.42,5.76.7,9.84,2,11.39,1.55,2,5.34,3.51,17.44,3.51,7.45,0,11.11-.28,13.22-.7,3.23-.56,5.9-3.52,8.72-8.72.7-1.26,1.54-2,2.11-2s.28,2-.29,3.52c-.42,1.26-2.81,8.44-3.51,9.42a3.12,3.12,0,0,1-2.39,1.41c-1.41,0-12.38.14-19.27-.28-7.17-.29-17.72-.71-21.94-.71s-10.4.71-12.23.71-2.82-.29-2.82-1,1.27-1,2.39-1.12c6.33-1.13,7-3.24,7.46-7.46.56-5.76.56-15,.56-34.59,0-19.13-.14-29.12-.42-33.62-.42-8.29-.7-9.14-7.17-10.26-1.55-.28-2-.71-2-1.27,0-.28.7-.7,2.25-.7Z"/><path class="cls-1" d="M308.75,58.65c3.52,0,4.5.42,4.64,1.41.28,2.25.7,7.59,1,9.56.28,1.41,0,2.53-.57,2.53s-1.12-1.27-1.82-2.81c-2.4-5.35-5.35-6.89-10.27-7.31-4.64-.43-11.11-.43-24.61-.43-1.13,0-2.25,2-2.25,2.67,0,3.94-.28,16.6,0,36.43,0,1.41,1,1.83,1.26,1.83,13.78,0,22.22-.28,24.47-.42,1.69-.14,3.94-.29,6.19-5.07.7-1.54,1.13-2,1.41-2,.56,0,.84.43.7,2s-.7,5.77-.7,8.58c0,2.53.56,4.22.56,6.19s-.28,2.25-.84,2.25-1.13-.84-2-3.09-2.25-4.08-3.94-4.51c-2.11-.42-3.09-.7-25.88-.7a3.23,3.23,0,0,0-1.4,1.83c-.14,2.25,0,24.61.28,30.94.28,5.63.84,6.47,7.45,8,1.27.28,2,.7,2,1.26,0,.85-1.41.85-2.95.85s-7.18-.85-12.8-.85c-4.78,0-8.58.56-9.56.56s-2.11-.28-2.11-.84.56-1,2.53-1.41c5.48-1.26,6.05-2.1,6.33-7.59.42-4.64.42-23.06.42-38.53,0-15,0-22.79-.42-31.51-.28-5.06-.43-6.46-5.77-7.73-1.27-.28-2.25-.7-2.25-1.41s1.13-.84,2.11-.84c1.27,0,9.56.56,15.75.56,13.5,0,27.71-.42,33.05-.42Z"/><polygon points="88.93 14.4 92.81 14.4 99.85 38.76 99.91 38.76 107.31 14.4 110.65 14.4 118.17 38.76 118.22 38.76 125.09 14.4 128.79 14.4 120.04 43.75 116.11 43.75 108.89 20.27 108.83 20.27 101.61 43.75 97.74 43.75 88.93 14.4 88.93 14.4"/><path d="M144.35,17c-6,0-10,4.87-10,12.09,0,7.46,4.05,12.33,10,12.33s10-5,10-12.09c0-7.34-4.16-12.33-10-12.33Zm-.18,27.53c-8.16,0-13.85-6.28-13.85-15.26,0-9.16,5.69-15.32,14-15.32s14,6.16,14,15.44c0,8.86-5.92,15.14-14.14,15.14Z"/><path d="M167.47,22.2V43.75h-3.81V14.4h3.46v5.16h.12c3.52-3.93,6.81-5.75,10.45-5.75v3.7c-3.41,0-6.87,1.58-10.22,4.69Z"/><path d="M204.44,41.28a12.17,12.17,0,0,0,8.33-3.58V20.33c-2.7-2.35-5.16-3.41-8.22-3.41-5.69,0-9.27,4.93-9.27,12.8,0,7.16,3.4,11.56,9.16,11.56Zm-.59-27.35a12.25,12.25,0,0,1,8.86,3.58h.06V1.07h3.82V43.75h-3.53v-3.7H213a13.88,13.88,0,0,1-9.87,4.28c-7.27,0-11.85-5.63-11.85-14.61,0-9.8,4.75-15.79,12.56-15.79Z"/><path d="M61.46,196.4c-8.22,0-14-5.57-14-15.26,0-9.92,6-15.32,14.38-15.32a21.81,21.81,0,0,1,7.4,1.24v3.17a19,19,0,0,0-7-1.35c-6.45,0-10.8,4.1-10.8,12,0,8.16,4.35,12.38,10.63,12.38a20.67,20.67,0,0,0,8-1.7v3.11a23.91,23.91,0,0,1-8.63,1.7Z"/><path d="M94.45,176.51c0-4.76-2.76-7.58-7.46-7.58a13,13,0,0,0-8.51,3.47v23.24H74.67V153h3.81v16.78a16.14,16.14,0,0,1,9.92-3.93c6.34,0,9.86,3.7,9.86,10.45v19.37H94.45V176.51Z"/><path d="M113.88,193.29a11.74,11.74,0,0,0,8.1-2.93v-9h-6.22c-5.7,0-8.63,1.88-8.63,6.28,0,3.7,2.23,5.69,6.75,5.69Zm14.14.3a13.19,13.19,0,0,0,1.41-.12v2.41a10.3,10.3,0,0,1-2.87.47,3.81,3.81,0,0,1-4.23-3.7,13.39,13.39,0,0,1-9.63,3.7c-6,0-9.39-3.06-9.39-8.4,0-6.22,4-9.21,11.68-9.21h7V176.1c0-5-2-7.22-7.1-7.22a31,31,0,0,0-8.46,1.29l.06-2.94a32.41,32.41,0,0,1,9.1-1.41c7.16,0,10.21,3.06,10.21,10.22V191.3a2,2,0,0,0,2.23,2.29Z"/><path d="M157.31,179.09H174c0-6.63-2.82-10.27-7.69-10.27-5.52,0-8.86,4.28-9,10.27Zm20.25.82v2H157.31c.06,7.51,4,11.44,10.86,11.44a20.43,20.43,0,0,0,8.51-2v3a21.88,21.88,0,0,1-9.21,2.05c-8.4,0-14-5.34-14-15.43,0-9,4.87-15.15,12.85-15.15,7.34,0,11.27,5.34,11.27,14.09Z"/><path d="M201.8,176.51c0-4.7-2.75-7.58-7.45-7.58a13,13,0,0,0-8.51,3.47v23.24H182V166.29h3.47v3.76h.11A15.23,15.23,0,0,1,196,165.82c5.93,0,9.63,3.7,9.63,10.45v19.37H201.8V176.51Z"/><path d="M222.64,192.59c2.82,0,5.58-1.29,8.16-3.76V172.28a11,11,0,0,0-8.1-3.46c-5.57,0-9,4.69-9,12.21,0,7.33,3.29,11.56,9,11.56Zm8.16-1.12a12.92,12.92,0,0,1-9.27,4.17c-7.46,0-11.86-5.4-11.86-14.56,0-9.45,4.7-15.26,12.21-15.26a12.88,12.88,0,0,1,9.22,3.93h.05v-3.46h3.47v30.76c0,7.28-4.11,10.92-12.27,10.92a21.18,21.18,0,0,1-9.8-2.18v-3.16A20.06,20.06,0,0,0,221.7,205c6.34,0,9.22-2.4,9.22-7.51v-6Z"/><path d="M243.89,179.09h16.73c0-6.63-2.82-10.27-7.69-10.27-5.52,0-8.86,4.28-9,10.27Zm20.25.82v2H243.89c.06,7.51,4,11.44,10.86,11.44a20.43,20.43,0,0,0,8.51-2v3a21.88,21.88,0,0,1-9.21,2.05c-8.4,0-14-5.34-14-15.43,0-9,4.87-15.15,12.85-15.15,7.34,0,11.27,5.34,11.27,14.09Z"/><polygon points="186.5 1.07 182.69 1.07 182.69 43.75 186.5 43.75 186.5 1.07 186.5 1.07"/></svg>